<?xml version="1.0" encoding="UTF-8"?>
<svg id="Layer_2" data-name="Layer 2" xmlns="http://www.w3.org/2000/svg" viewBox="0 0 593.76 265.95">
  <defs>
    <style>
      .cls-1 {
        fill: #fff;
        stroke-width: 0px;
      }
    </style>
  </defs>
  <g id="Layer_1-2" data-name="Layer 1">
    <g>
      <path class="cls-1" d="M122.47,0v12.93h-2.58c-15.48-.29-19.24,5.58-19.47,29.97v136.35c0,39.08-3.75,54.95-16.42,68.76-10.56,11.75-25.81,17.93-44.11,17.93-23.93,0-39.88-11.46-39.88-28.5,0-11.17,7.51-19.69,17.36-19.69,8.91,0,15.49,7.05,15.49,16.16,0,2.06-.47,4.7-1.17,7.35-.47,1.76-.7,3.53-.7,4.41,0,4.41,4.22,7.35,10.56,7.35,8.21,0,14.55-4.7,18.3-12.93,4.69-10.58,5.87-20.87,5.87-52.01V42.9c-.23-24.39-3.99-30.27-19.71-29.97h-3.99V0h80.47Z"/>
      <path class="cls-1" d="M213.52,145.01c0,22.8-18.2,39.9-42.47,39.9-25.93,0-44.13-16.36-44.13-39.72s18.02-40.27,43.39-40.27,43.21,16.73,43.21,40.08ZM156.33,120.37c-2.76,4.97-3.86,12.32-3.86,24.46s1.1,19.68,3.86,24.64c2.57,4.41,7.91,7.36,13.61,7.36,13.24,0,18.02-8.46,18.02-32.18s-4.96-31.63-17.65-31.63c-6.25,0-11.4,2.76-13.97,7.36Z"/>
      <path class="cls-1" d="M259.57,106.21c1.1,2.94,1.84,6.62,2.02,12.14,7.72-8.64,17.65-13.42,28.13-13.42,9.38,0,18.02,4.23,21.88,11.03,2.39,4.41,3.13,8.27,3.13,18.2v24.82c.37,12.5,2.21,15.08,10.85,15.26h.92v7.72h-46.15v-7.72l1.29-.18c7.36-.55,8.64-2.57,9.01-15.08v-29.97c0-7.36-4.04-11.95-10.66-11.95s-12.32,4.04-18.75,12.87v29.05c.37,12.5,1.65,14.71,9.56,15.26h.74v7.72h-45.97v-7.72h.74c9.01-.18,10.85-2.76,11.22-15.26v-24.64c-.55-11.4-2.94-14.53-11.22-14.53h-.92v-7.72c3.86-.74,6.25-1.1,16.36-2.76,8.46-1.29,12.32-2.02,16.36-3.13h1.47Z"/>
      <path class="cls-1" d="M376.14,106.21c1.1,2.94,1.84,6.62,2.02,12.14,7.72-8.64,17.65-13.42,28.13-13.42,9.38,0,18.02,4.23,21.88,11.03,2.39,4.41,3.13,8.27,3.13,18.2v24.82c.37,12.5,2.21,15.08,10.85,15.26h.92v7.72h-46.15v-7.72l1.29-.18c7.36-.55,8.64-2.57,9.01-15.08v-29.97c0-7.36-4.04-11.95-10.66-11.95s-12.32,4.04-18.75,12.87v29.05c.37,12.5,1.65,14.71,9.56,15.26h.74v7.72h-45.97v-7.72h.74c9.01-.18,10.85-2.76,11.22-15.26v-24.64c-.55-11.4-2.94-14.53-11.22-14.53h-.92v-7.72c3.86-.74,6.25-1.1,16.36-2.76,8.46-1.29,12.32-2.02,16.36-3.13h1.47Z"/>
      <path class="cls-1" d="M494.72,158.99c.37,12.32,2.39,15.08,11.22,15.26h1.1v7.72h-50.01v-7.72h2.39c9.19-.18,11.22-2.76,11.58-15.26v-25.37c0-11.58-2.57-14.89-11.77-14.71h-2.21v-7.91c7.17-.55,30.52-4.6,36.41-6.07h1.29v54.06ZM496.38,71.46c0,7.72-6.25,13.97-13.97,13.97s-13.79-6.44-13.79-14.34,6.25-13.79,13.97-13.79,13.79,6.25,13.79,14.16Z"/>
      <path class="cls-1" d="M592.11,167.08c-6.07,10.85-19.31,17.84-34.2,17.84-23.72,0-41-16.92-41-40.27s17.1-39.72,40.45-39.72c21.33,0,36.41,13.97,36.41,34.02v1.29h-51.12c-.18,2.02-.18,3.31-.18,4.97,0,19.67,7.72,30.52,21.7,30.52,8.46,0,16.18-4.41,20.96-12.13l6.99,3.49ZM569.86,133.06c.18-.92.18-1.47.18-2.39,0-11.03-4.97-17.84-13.06-17.84-4.23,0-8.46,2.21-10.48,5.33-2.21,3.49-2.94,6.8-3.68,14.89h27.03Z"/>
    </g>
  </g>
</svg>